<svg width="139" height="26" viewBox="0 0 139 26" fill="none" xmlns="http://www.w3.org/2000/svg">
<path d="M106.545 21.0649C106.22 21.0649 105.948 20.9557 105.728 20.7374C105.508 20.519 105.398 20.2486 105.398 19.9263C105.398 19.6039 105.508 19.3335 105.728 19.1152C105.948 18.8968 106.22 18.7876 106.545 18.7876C106.859 18.7876 107.126 18.8968 107.346 19.1152C107.566 19.3335 107.676 19.6039 107.676 19.9263C107.676 20.2486 107.566 20.519 107.346 20.7374C107.126 20.9557 106.859 21.0649 106.545 21.0649Z" fill="#ffffff"/>
<path d="M120.409 18.575L120.409 18.575C119.921 18.0848 119.673 17.4652 119.673 16.7279C119.673 15.9907 119.921 15.371 120.409 14.8801C120.897 14.3895 121.502 14.1407 122.212 14.1407C122.922 14.1407 123.543 14.3899 124.03 14.8801L124.03 14.8801C124.517 15.371 124.765 15.9907 124.765 16.7279C124.765 17.4652 124.517 18.0848 124.03 18.575L124.03 18.5751C123.543 19.0661 122.933 19.3152 122.212 19.3152C121.491 19.3152 120.897 19.0664 120.409 18.575ZM122.211 12.4596C121.036 12.4596 120.024 12.8752 119.205 13.6933C118.387 14.511 117.972 15.5331 117.972 16.7272C117.972 17.9213 118.387 18.9434 119.205 19.7611C120.024 20.5793 121.036 20.9941 122.211 20.9941C123.386 20.9941 124.402 20.5793 125.224 19.7613C126.048 18.9422 126.467 17.9201 126.467 16.7272C126.467 15.5344 126.049 14.5115 125.224 13.6931C124.401 12.8752 123.386 12.4596 122.211 12.4596Z" fill="#ffffff" stroke="#ffffff" stroke-width="0.142332"/>
<path d="M135.759 12.4596C134.724 12.4596 133.91 12.8513 133.344 13.6259C132.832 12.8515 132.064 12.4596 131.065 12.4596C130.193 12.4596 129.48 12.7584 128.944 13.3498V12.7335V12.6623H128.873H127.314H127.243V12.7335V20.7216V20.7928H127.314H128.873H128.944V20.7216V16.2919C128.944 15.5461 129.121 14.996 129.458 14.6445L129.458 14.6443C129.797 14.2891 130.227 14.1086 130.742 14.1086C131.196 14.1086 131.549 14.2573 131.804 14.5456C132.063 14.8385 132.2 15.2662 132.2 15.8259V20.7216V20.7928H132.271H133.83H133.901V20.7216V16.2919C133.901 15.5322 134.065 14.9788 134.374 14.6319L134.374 14.6318C134.685 14.2811 135.091 14.1086 135.622 14.1086C136.093 14.1086 136.451 14.2541 136.726 14.5491L136.726 14.5492C136.998 14.8407 137.141 15.267 137.141 15.8259V20.7216V20.7928H137.212H138.771H138.843V20.7216V15.7797C138.843 14.7777 138.558 13.9627 137.991 13.3632L137.969 13.341H137.969C137.402 12.7552 136.657 12.4596 135.759 12.4596Z" fill="#ffffff" stroke="#ffffff" stroke-width="0.142332"/>
<path d="M109.693 14.3455L109.693 14.3455L109.693 14.3459C109.343 14.9891 109.17 15.7358 109.17 16.584C109.17 17.4321 109.343 18.1836 109.692 18.8365L109.692 18.8365L109.693 18.8376C110.052 19.4798 110.545 19.9823 111.171 20.3438L111.172 20.3442C111.798 20.6961 112.516 20.8711 113.323 20.8711C114.323 20.8711 115.164 20.6264 115.844 20.1327L115.845 20.1323C116.523 19.6295 116.985 18.9554 117.231 18.1128L117.258 18.0217H117.163H115.303H115.254L115.237 18.0678C115.08 18.485 114.843 18.7935 114.528 18.9984C114.212 19.2036 113.812 19.3087 113.323 19.3087C112.636 19.3087 112.093 19.0698 111.684 18.5942C111.285 18.1179 111.081 17.4509 111.081 16.584C111.081 15.7169 111.285 15.0551 111.684 14.5889C112.092 14.113 112.636 13.8741 113.323 13.8741C113.816 13.8741 114.219 13.985 114.538 14.202C114.857 14.4199 115.09 14.7232 115.237 15.1148L115.254 15.1611H115.303H117.163H117.255L117.231 15.0715C116.996 14.1895 116.539 13.509 115.858 13.0348C115.189 12.551 114.342 12.3116 113.323 12.3116C112.516 12.3116 111.798 12.4866 111.172 12.8385C110.545 13.1904 110.052 13.6933 109.693 14.3455Z" fill="#ffffff" stroke="#ffffff" stroke-width="0.142332"/>
<path d="M47.8104 7.22478C46.4454 5.48548 44.5453 4.60303 42.1513 4.60303C39.9238 4.60303 37.998 5.42571 36.4281 7.04829C34.861 8.66945 34.0654 10.6706 34.0654 12.9992C34.0654 15.3277 34.861 17.3289 36.4281 18.9487C37.998 20.5712 39.9238 21.3939 42.1513 21.3939C44.5453 21.3939 46.4469 20.5129 47.8104 18.7722V20.9897H50.9503V5.00725H47.8104V7.22336V7.22478ZM46.2875 9.18754C47.298 10.2066 47.8104 11.4905 47.8104 13.0006C47.8104 14.5108 47.298 15.7946 46.2875 16.8123C45.2755 17.8328 43.9988 18.3509 42.4915 18.3509C40.9842 18.3509 39.7402 17.8328 38.7282 16.8123C37.7177 15.7932 37.2038 14.5108 37.2038 13.0006C37.2038 11.4905 37.7162 10.2081 38.7282 9.18754C39.7388 8.16702 41.0041 7.65036 42.4915 7.65036C43.9788 7.65036 45.2769 8.16702 46.2875 9.18754Z" fill="#ffffff"/>
<path d="M70.4777 4.60303C68.1492 4.60303 66.1466 5.42001 64.5254 7.02979C62.9043 8.63814 62.083 10.6464 62.083 12.9992C62.083 15.3519 62.9057 17.3602 64.5254 18.9686C66.1466 20.5784 68.1492 21.3939 70.4777 21.3939C72.8063 21.3939 74.816 20.5784 76.4443 18.9686C78.0769 17.3574 78.9066 15.3491 78.9066 12.9992C78.9066 10.6493 78.0783 8.63956 76.4443 7.02979C74.8146 5.42001 72.8063 4.60303 70.4777 4.60303ZM75.764 13.0006C75.764 14.5108 75.2516 15.7875 74.241 16.7966C73.2319 17.8072 71.9665 18.3196 70.4777 18.3196C68.989 18.3196 67.7549 17.8072 66.7444 16.7966C65.7338 15.7875 65.2214 14.5108 65.2214 13.0006C65.2214 11.4905 65.7338 10.2137 66.7444 9.20319C67.7549 8.19406 69.0103 7.68166 70.4777 7.68166C71.9452 7.68166 73.2333 8.19406 74.241 9.20319C75.2516 10.2137 75.764 11.4905 75.764 13.0006Z" fill="#ffffff"/>
<path d="M102.155 6.36652C101.039 5.19655 99.5627 4.60303 97.7665 4.60303C95.6472 4.60303 94.0103 5.42571 92.8945 7.04971C91.8939 5.42571 90.3538 4.60303 88.3114 4.60303C86.4525 4.60303 84.9708 5.2848 83.8962 6.62983V5.00867H80.7578V20.9911H83.8962V12.1281C83.8962 10.6166 84.2578 9.47363 84.9723 8.7335C85.6825 7.99337 86.5863 7.61762 87.6609 7.61762C88.6088 7.61762 89.3632 7.9279 89.9083 8.53993C90.4606 9.1605 90.741 10.0543 90.741 11.1958V20.9911H93.8808V12.1281C93.8808 10.5924 94.2125 9.44374 94.8686 8.71215C95.5262 7.97629 96.3844 7.61762 97.4904 7.61762C98.4725 7.61762 99.2325 7.92079 99.8175 8.5442C100.398 9.16192 100.693 10.0543 100.693 11.1958V20.9911H103.833V11.1033C103.833 9.12633 103.269 7.53364 102.156 6.36652H102.155Z" fill="#ffffff"/>
<path d="M60.5935 18.0763C59.832 18.2898 59.0435 18.4122 58.43 18.4122C56.6281 18.4122 55.9264 17.5853 55.9264 15.4631V7.89529H61.1187V5.03869H55.9264V1.27686H52.8008V15.4631C52.8008 19.3388 54.634 21.3869 58.1026 21.3869C59.1118 21.3869 59.9572 21.2531 61.224 20.8902L61.7079 20.7521L61.1756 17.9126L60.5949 18.0763H60.5935Z" fill="#ffffff"/>
<path d="M15.6342 7.32013L19.6949 1.04187C18.8537 0.602061 17.9599 0.256198 17.0262 0C16.8056 1.66386 15.536 3.06156 13.8565 3.24232C11.8282 3.46009 10.069 1.97699 9.88397 0.00426978C8.95596 0.259044 8.0664 0.604908 7.22949 1.04187L11.2902 7.32013C12.3093 8.89575 14.6151 8.89575 15.6342 7.32013Z" fill="#637CF7"/>
<path d="M9.62831 8.27812L6.22373 1.62695C5.41386 2.14362 4.65807 2.73572 3.97915 3.40752C5.31422 4.42947 5.89351 6.23282 5.2089 7.77854C4.38337 9.64309 2.22135 10.4231 0.420849 9.59896C0.184578 10.5056 0.0422528 11.4479 0.000976562 12.4186L7.45775 12.0414C9.33226 11.946 10.4837 9.95052 9.62974 8.27955L9.62831 8.27812Z" fill="#637CF7"/>
<path d="M7.45677 13.9587L0 13.5815C0.0412763 14.5565 0.185027 15.5016 0.422722 16.4125C1.97272 15.772 3.81876 16.1734 4.81366 17.5369C6.01779 19.188 5.60931 21.4539 3.98814 22.5997C4.66564 23.2687 5.41857 23.8579 6.22417 24.3732L9.62876 17.722C10.4842 16.051 9.33129 14.0555 7.45677 13.9601V13.9587Z" fill="#637CF7"/>
<path d="M13.0679 22.7576C15.0962 22.5398 16.8554 24.0229 17.0404 25.9956C17.9684 25.7408 18.858 25.395 19.6949 24.958L15.6342 18.6798C14.6151 17.1041 12.3093 17.1041 11.2902 18.6798L7.22949 24.958C8.07067 25.3978 8.96452 25.7437 9.89822 25.9999C10.1188 24.336 11.3884 22.9383 13.0679 22.7576Z" fill="#637CF7"/>
<path d="M17.2958 17.7205L20.7004 24.3717C21.5103 23.855 22.2661 23.2629 22.945 22.5911C21.6099 21.5692 21.0306 19.7658 21.7152 18.2201C22.5408 16.3556 24.7028 15.5756 26.5033 16.3997C26.7395 15.493 26.8819 14.5508 26.9232 13.5801L19.4664 13.9573C17.5919 14.0526 16.4404 16.0481 17.2944 17.7191L17.2958 17.7205Z" fill="#637CF7"/>
<path d="M19.4679 12.0399L26.9247 12.4171C26.8834 11.4421 26.7397 10.497 26.502 9.58611C24.952 10.2266 23.1059 9.82523 22.111 8.46169C20.9069 6.81064 21.3154 4.54472 22.9366 3.39894C22.2591 2.72998 21.5076 2.14073 20.7005 1.62549L17.296 8.27666C16.4405 9.94764 17.5934 11.9431 19.4679 12.0385V12.0399Z" fill="#637CF7"/>
</svg>
