<svg width="139" height="26" viewBox="0 0 139 26" fill="none" xmlns="http://www.w3.org/2000/svg">
<path d="M106.544 21.0654C106.22 21.0654 105.948 20.9562 105.728 20.7378C105.508 20.5195 105.398 20.2491 105.398 19.9267C105.398 19.6044 105.508 19.334 105.728 19.1156C105.948 18.8973 106.22 18.7881 106.544 18.7881C106.859 18.7881 107.126 18.8973 107.345 19.1156C107.565 19.334 107.675 19.6044 107.675 19.9267C107.675 20.2491 107.565 20.5195 107.345 20.7378C107.126 20.9562 106.859 21.0654 106.544 21.0654Z" fill="#19184A"/>
<path d="M120.408 18.5746L120.408 18.5745C119.921 18.0843 119.673 17.4647 119.673 16.7274C119.673 15.9902 119.921 15.3705 120.408 14.8796C120.896 14.389 121.501 14.1402 122.211 14.1402C122.922 14.1402 123.543 14.3894 124.029 14.8796L124.029 14.8796C124.517 15.3705 124.765 15.9902 124.765 16.7274C124.765 17.4647 124.517 18.0843 124.029 18.5745L124.029 18.5746C123.542 19.0656 122.932 19.3147 122.211 19.3147C121.491 19.3147 120.896 19.066 120.408 18.5746ZM122.211 12.4591C121.036 12.4591 120.023 12.8747 119.205 13.6928C118.386 14.5105 117.971 15.5326 117.971 16.7267C117.971 17.9208 118.387 18.9429 119.205 19.7606C120.023 20.5788 121.036 20.9936 122.211 20.9936C123.385 20.9936 124.401 20.5788 125.223 19.7608C126.048 18.9417 126.467 17.9196 126.467 16.7267C126.467 15.5339 126.048 14.511 125.223 13.6927C124.401 12.8747 123.385 12.4591 122.211 12.4591Z" fill="#19184A" stroke="#19184A" stroke-width="0.142332"/>
<path d="M135.759 12.4591C134.724 12.4591 133.91 12.8508 133.343 13.6254C132.832 12.851 132.064 12.4591 131.065 12.4591C130.193 12.4591 129.48 12.758 128.944 13.3493V12.733V12.6619H128.873H127.314H127.243V12.733V20.7212V20.7923H127.314H128.873H128.944V20.7212V16.2914C128.944 15.5456 129.121 14.9955 129.458 14.644L129.458 14.6438C129.797 14.2886 130.227 14.1082 130.742 14.1082C131.195 14.1082 131.549 14.2568 131.804 14.5451C132.063 14.8381 132.2 15.2657 132.2 15.8254V20.7212V20.7923H132.271H133.83H133.901V20.7212V16.2914C133.901 15.5317 134.065 14.9783 134.374 14.6314L134.374 14.6313C134.685 14.2806 135.091 14.1082 135.622 14.1082C136.093 14.1082 136.451 14.2536 136.726 14.5486L136.726 14.5487C136.998 14.8402 137.141 15.2665 137.141 15.8254V20.7212V20.7923H137.212H138.771H138.842V20.7212V15.7792C138.842 14.7773 138.558 13.9622 137.99 13.3627L137.969 13.3405H137.969C137.402 12.7547 136.657 12.4591 135.759 12.4591Z" fill="#19184A" stroke="#19184A" stroke-width="0.142332"/>
<path d="M109.693 14.3455L109.693 14.3455L109.692 14.3459C109.343 14.9891 109.17 15.7358 109.17 16.584C109.17 17.4321 109.343 18.1836 109.692 18.8365L109.692 18.8365L109.693 18.8376C110.052 19.4798 110.544 19.9823 111.171 20.3438L111.171 20.3442C111.798 20.6961 112.516 20.8711 113.323 20.8711C114.322 20.8711 115.164 20.6264 115.844 20.1327L115.844 20.1323C116.522 19.6295 116.985 18.9554 117.231 18.1128L117.257 18.0217H117.162H115.303H115.254L115.236 18.0678C115.08 18.485 114.843 18.7935 114.527 18.9984C114.211 19.2036 113.811 19.3087 113.323 19.3087C112.636 19.3087 112.092 19.0698 111.684 18.5942C111.285 18.1179 111.081 17.4509 111.081 16.584C111.081 15.7169 111.285 15.0551 111.683 14.5889C112.092 14.113 112.636 13.8741 113.323 13.8741C113.816 13.8741 114.219 13.985 114.537 14.202C114.857 14.4199 115.09 14.7232 115.236 15.1148L115.254 15.1611H115.303H117.162H117.255L117.231 15.0715C116.996 14.1895 116.538 13.509 115.858 13.0348C115.188 12.551 114.341 12.3116 113.323 12.3116C112.516 12.3116 111.798 12.4866 111.171 12.8385C110.545 13.1904 110.051 13.6933 109.693 14.3455Z" fill="#19184A" stroke="#19184A" stroke-width="0.142332"/>
<path d="M47.8105 7.22527C46.4455 5.48597 44.5454 4.60352 42.1513 4.60352C39.9238 4.60352 37.9981 5.42619 36.4282 7.04878C34.8611 8.66994 34.0655 10.6711 34.0655 12.9997C34.0655 15.3282 34.8611 17.3294 36.4282 18.9492C37.9981 20.5717 39.9238 21.3944 42.1513 21.3944C44.5454 21.3944 46.4469 20.5134 47.8105 18.7727V20.9902H50.9503V5.00774H47.8105V7.22385V7.22527ZM46.2875 9.18803C47.2981 10.2071 47.8105 11.491 47.8105 13.0011C47.8105 14.5112 47.2981 15.7951 46.2875 16.8128C45.2755 17.8333 43.9988 18.3514 42.4915 18.3514C40.9842 18.3514 39.7403 17.8333 38.7283 16.8128C37.7177 15.7937 37.2039 14.5112 37.2039 13.0011C37.2039 11.491 37.7163 10.2085 38.7283 9.18803C39.7388 8.16751 41.0042 7.65084 42.4915 7.65084C43.9789 7.65084 45.277 8.16751 46.2875 9.18803Z" fill="#19184A"/>
<path d="M70.4782 4.60352C68.1497 4.60352 66.1471 5.4205 64.5259 7.03027C62.9048 8.63863 62.0835 10.6469 62.0835 12.9997C62.0835 15.3524 62.9062 17.3607 64.5259 18.9691C66.1471 20.5789 68.1497 21.3944 70.4782 21.3944C72.8068 21.3944 74.8165 20.5789 76.4448 18.9691C78.0774 17.3579 78.9071 15.3496 78.9071 12.9997C78.9071 10.6498 78.0788 8.64005 76.4448 7.03027C74.8151 5.4205 72.8068 4.60352 70.4782 4.60352ZM75.7645 13.0011C75.7645 14.5112 75.2521 15.788 74.2415 16.7971C73.2324 17.8076 71.967 18.32 70.4782 18.32C68.9894 18.32 67.7554 17.8076 66.7449 16.7971C65.7343 15.788 65.2219 14.5112 65.2219 13.0011C65.2219 11.491 65.7343 10.2142 66.7449 9.20368C67.7554 8.19455 69.0108 7.68215 70.4782 7.68215C71.9457 7.68215 73.2338 8.19455 74.2415 9.20368C75.2521 10.2142 75.7645 11.491 75.7645 13.0011Z" fill="#19184A"/>
<path d="M102.154 6.36701C101.038 5.19704 99.5623 4.60352 97.7661 4.60352C95.6468 4.60352 94.01 5.42619 92.8941 7.0502C91.8935 5.42619 90.3535 4.60352 88.311 4.60352C86.4522 4.60352 84.9705 5.28528 83.8959 6.63032V5.00916H80.7574V20.9916H83.8959V12.1286C83.8959 10.617 84.2574 9.47411 84.9719 8.73399C85.6821 7.99386 86.5859 7.61811 87.6605 7.61811C88.6085 7.61811 89.3628 7.92839 89.908 8.54042C90.4602 9.16099 90.7406 10.0548 90.7406 11.1963V20.9916H93.8805V12.1286C93.8805 10.5928 94.2121 9.44422 94.8683 8.71264C95.5258 7.97678 96.3841 7.61811 97.49 7.61811C98.4721 7.61811 99.2322 7.92127 99.8171 8.54469C100.398 9.16241 100.692 10.0548 100.692 11.1963V20.9916H103.832V11.1038C103.832 9.12682 103.269 7.53413 102.156 6.36701H102.154Z" fill="#19184A"/>
<path d="M60.5933 18.0768C59.8319 18.2903 59.0433 18.4127 58.4299 18.4127C56.628 18.4127 55.9263 17.5857 55.9263 15.4636V7.89578H61.1185V5.03918H55.9263V1.27734H52.8007V15.4636C52.8007 19.3393 54.6339 21.3874 58.1025 21.3874C59.1117 21.3874 59.9571 21.2536 61.2239 20.8907L61.7078 20.7526L61.1755 17.9131L60.5948 18.0768H60.5933Z" fill="#19184A"/>
<path d="M15.6338 7.32013L19.6945 1.04187C18.8533 0.602061 17.9595 0.256198 17.0258 0C16.8052 1.66386 15.5355 3.06156 13.856 3.24232C11.8278 3.46009 10.0686 1.97699 9.88354 0.00426978C8.95554 0.259044 8.06598 0.604908 7.22906 1.04187L11.2898 7.32013C12.3089 8.89575 14.6147 8.89575 15.6338 7.32013Z" fill="#637CF7"/>
<path d="M9.62874 8.27812L6.22415 1.62695C5.41428 2.14362 4.6585 2.73572 3.97958 3.40752C5.31465 4.42947 5.89394 6.23282 5.20933 7.77854C4.3838 9.64309 2.22178 10.4231 0.421276 9.59896C0.185005 10.5056 0.0426801 11.4479 0.00140381 12.4186L7.45818 12.0414C9.33269 11.946 10.4842 9.95052 9.63016 8.27955L9.62874 8.27812Z" fill="#637CF7"/>
<path d="M7.45677 13.9582L0 13.5811C0.0412763 14.556 0.185027 15.5011 0.422722 16.412C1.97272 15.7715 3.81876 16.1729 4.81366 17.5365C6.01779 19.1875 5.60931 21.4534 3.98814 22.5992C4.66564 23.2682 5.41857 23.8574 6.22417 24.3727L9.62876 17.7215C10.4842 16.0505 9.33129 14.055 7.45677 13.9597V13.9582Z" fill="#637CF7"/>
<path d="M13.0675 22.7576C15.0957 22.5398 16.855 24.0229 17.04 25.9956C17.968 25.7408 18.8576 25.395 19.6945 24.958L15.6338 18.6798C14.6147 17.1041 12.3089 17.1041 11.2898 18.6798L7.22906 24.958C8.07025 25.3978 8.96409 25.7437 9.89779 25.9999C10.1184 24.336 11.388 22.9383 13.0675 22.7576Z" fill="#637CF7"/>
<path d="M17.2962 17.7205L20.7008 24.3717C21.5106 23.855 22.2664 23.2629 22.9453 22.5911C21.6103 21.5692 21.031 19.7658 21.7156 18.2201C22.5411 16.3556 24.7031 15.5756 26.5036 16.3997C26.7399 15.493 26.8823 14.5508 26.9235 13.5801L19.4668 13.9573C17.5922 14.0526 16.4408 16.0481 17.2948 17.7191L17.2962 17.7205Z" fill="#637CF7"/>
<path d="M19.4682 12.0394L26.925 12.4166C26.8837 11.4416 26.7399 10.4965 26.5022 9.58563C24.9522 10.2261 23.1062 9.82474 22.1113 8.4612C20.9072 6.81015 21.3157 4.54423 22.9368 3.39846C22.2593 2.72949 21.5078 2.14024 20.7008 1.625L17.2962 8.27617C16.4408 9.94715 17.5937 11.9426 19.4682 12.038V12.0394Z" fill="#637CF7"/>
</svg>
